<svg width="64" height="64" viewBox="0 0 64 64" fill="none" xmlns="http://www.w3.org/2000/svg">
<g clip-path="url(#clip0_197_5674)">
<path d="M0 32.0002C0 35.7335 0.666667 39.3335 1.8 42.6668H62.1333C63.3333 39.3335 64 35.7335 64 32.0002C64 28.2668 63.3333 24.6668 62.2 21.3335H1.8C0.666667 24.6668 0 28.2668 0 32.0002Z" fill="#231D9A"/>
<path d="M1.80078 21.3333H62.1341C57.8008 8.93333 45.9341 0 32.0008 0C18.0674 0 6.20078 8.93333 1.80078 21.3333Z" fill="white"/>
<path d="M62.2008 42.6665H1.80078C6.20078 55.0665 18.0674 63.9998 32.0008 63.9998C45.9341 63.9998 57.8008 55.0665 62.2008 42.6665Z" fill="#F0263C"/>
<path d="M6.66634 20H25.333L26.6663 33.3333L23.133 40.1333L15.9997 43.7333L8.86634 40.1333L5.33301 33.3333L6.66634 20Z" fill="#F0263C"/>
<path d="M25.3333 19.9998L26.6667 33.3332L23.1333 40.1332L16 43.7332L8.86667 40.1998L5.33333 33.3332L6.66667 19.9998H25.3333ZM26.5333 18.6665H5.46667L4 33.5998L7.93333 41.1332L16 45.3332L24.0667 41.1332L28 33.5998L26.5333 18.6665Z" fill="white"/>
<path d="M24.6004 37.3333L23.1337 40.1333L16.0004 43.7333L8.86706 40.1333L7.40039 37.3333L10.6671 36H21.3337L24.6004 37.3333Z" fill="#231D9A"/>
<path d="M22.6663 29.3335H17.333V26.6668H21.333V24.0002H17.333V21.3335H14.6663V24.0002H10.6663V26.6668H14.6663V29.3335H9.33301V32.0002H14.6663V36.0002H17.333V32.0002H22.6663V29.3335Z" fill="white"/>
</g>
<defs>
<clipPath id="clip0_197_5674">
<rect width="64" height="64" fill="white"/>
</clipPath>
</defs>
</svg>
