<svg width="64" height="64" viewBox="0 0 64 64" fill="none" xmlns="http://www.w3.org/2000/svg">
<g clip-path="url(#clip0_197_5936)">
<path d="M63.9997 32C63.9997 14.3333 49.6663 0 31.9997 0C28.2663 0 24.6663 0.666667 21.333 1.8V62.1333C24.6663 63.3333 28.2663 64 31.9997 64C49.6663 64 63.9997 49.6667 63.9997 32Z" fill="#F0263C"/>
<path d="M0 32C0 45.9334 8.93333 57.8001 21.3333 62.2001V1.80005C8.93333 6.20005 0 18.0667 0 32Z" fill="#1E5B00"/>
<path d="M17.0664 34.9336C17.1331 35.0003 17.1997 35.1336 17.2664 35.2003C17.1997 35.0669 17.1331 35.0003 17.0664 34.9336Z" fill="#FFD400"/>
<path d="M25.3994 35.2003C25.4661 35.1336 25.5327 35.0003 25.5994 34.9336C25.5327 35.0003 25.4661 35.0669 25.3994 35.2003Z" fill="#FFD400"/>
<path d="M21.333 18.6667C14.733 18.6667 9.33301 24.0667 9.33301 30.6667C9.33301 37.2667 14.733 42.6667 21.333 42.6667C27.933 42.6667 33.333 37.2667 33.333 30.6667C33.333 24.0667 27.933 18.6667 21.333 18.6667ZM30.533 32.0001L29.2663 32.6667C29.1997 33.2667 29.0663 33.8001 28.8663 34.4001L31.7997 32.9334C31.533 34.1334 31.0663 35.2668 30.4663 36.2668L28.7997 34.6001C28.6663 35.0667 28.4663 35.4667 28.1997 35.8667L29.2663 36.9334L27.2663 37.2001C26.733 37.8667 26.133 38.4001 25.4663 38.8001L28.8663 38.3334C26.9997 40.0001 24.6663 41.1334 21.9997 41.2668V39.9334C21.7997 39.9334 21.533 40.0001 21.333 40.0001C21.133 40.0001 20.8663 40.0001 20.6663 39.9334V41.2668C17.9997 41.1334 15.6663 40.0001 13.8663 38.2668L17.2663 38.7334C16.5997 38.2667 15.9997 37.7334 15.4663 37.1334L13.4663 36.8667L14.533 35.8001C14.333 35.4001 14.133 34.9334 13.933 34.5334L12.2663 36.2001C11.6663 35.2001 11.1997 34.0667 10.933 32.8667L13.8663 34.3334C13.6663 33.8001 13.533 33.2001 13.4663 32.6001L12.1997 31.9334L13.3997 31.3334C13.3997 31.2667 13.3997 31.2667 13.3997 31.2001V30.6667V29.9334L10.733 31.2667C10.733 31.0667 10.733 30.8667 10.733 30.6667C10.733 29.6667 10.8663 28.6667 11.133 27.7334L13.3997 29.2667V27.6667L12.2663 26.8667L13.3997 26.4667V25.3334V25.0667L12.0663 25.5334C12.4663 24.8667 12.8663 24.2001 13.3997 23.6667V22.6667H14.3997C16.133 21.1334 18.333 20.2001 20.733 20.0667V22.6667H21.3997H22.0663V20.0667C24.4663 20.2001 26.733 21.2001 28.3997 22.6667H29.333V23.6001C29.8663 24.2001 30.2663 24.8001 30.6663 25.4667L29.333 25.0001V25.3334V26.4667L30.4663 26.8667L29.333 27.6667V29.2667L31.5997 27.7334C31.8663 28.6667 31.9997 29.6667 31.9997 30.6667C31.9997 30.8667 31.9997 31.0667 31.9997 31.2667L29.333 29.9334V30.6667V31.2667C29.333 31.3334 29.333 31.3334 29.333 31.4001L30.533 32.0001Z" fill="#FFD400"/>
<path d="M26.6 32.0002H24V29.3335H26.6667V25.3335H22.6667V28.0002H20V25.3335H16V29.3335H18.6667V32.0002H16.0667C16.0667 32.2002 16.1333 32.4668 16.2 32.6668V32.7335C16.4 33.5335 16.6667 34.2668 17.1333 34.8668C17.2 34.9335 17.2667 35.0668 17.3333 35.1335C17.6667 35.6002 18 35.9335 18.4667 36.2668C18.7333 36.4668 19 36.6002 19.2667 36.7335C19.4667 36.8668 19.7333 36.9335 19.9333 37.0002C20.2 37.0668 20.4667 37.1335 20.7333 37.2002C20.9333 37.2002 21.1333 37.2668 21.4 37.2668C21.8667 37.2668 22.2667 37.2002 22.6667 37.0668C23.0667 36.9335 23.4667 36.8002 23.8 36.6002C24 36.4668 24.1333 36.4002 24.3333 36.2668C24.7333 35.9335 25.1333 35.5335 25.4667 35.1335C25.5333 35.0668 25.6 34.9335 25.6667 34.8668C26.0667 34.2002 26.4 33.5335 26.6 32.7335V32.6668C26.5333 32.4668 26.6 32.2002 26.6 32.0002ZM20 29.3335H22.6667V32.0002H20V29.3335ZM22.6667 36.0002H20V33.3335H22.6667V36.0002Z" fill="white"/>
<path d="M17.3333 24.0001L16 25.3334H20H21.3333L20 24.0001L21.3333 22.6667H20.6667H16L17.3333 24.0001Z" fill="#F0263C"/>
<path d="M27.9993 24.0001L26.666 25.3334V29.3334V30.6667L27.9993 29.3334L29.3327 30.6667V29.9334V29.2667V27.6667V26.4667V25.3334V25.0667V23.6001V22.6667H28.3327H26.666L27.9993 24.0001Z" fill="#F0263C"/>
<path d="M22.6663 24.0001L21.333 25.3334H22.6663H26.6663L25.333 24.0001L26.6663 22.6667H21.9997H21.333L22.6663 24.0001Z" fill="#F0263C"/>
<path d="M15.9997 30.6667V29.3334V25.3334L14.6663 24.0001L15.9997 22.6667H14.333H13.333V23.6001V25.0667V25.3334V26.4667V27.6667V29.2667V29.9334V30.6667L14.6663 29.3334L15.9997 30.6667Z" fill="#F0263C"/>
<path d="M29.333 30.6667L27.9997 32.0001L26.6663 30.6667V31.2667V32.0001H26.5997C26.5997 32.2001 26.533 32.4667 26.4663 32.6667V32.7334C26.2663 33.5334 25.9997 34.2667 25.533 34.8667C25.4663 34.9334 25.3997 35.0667 25.333 35.1334C24.9997 35.6001 24.6663 35.9334 24.1997 36.2667C23.9997 36.4001 23.8663 36.5334 23.6663 36.6001C23.333 36.8001 22.933 37.0001 22.533 37.0667C22.1997 37.2667 21.7997 37.3334 21.333 37.3334C21.133 37.3334 20.933 37.3334 20.6663 37.2667C20.3997 37.2001 20.133 37.1334 19.8663 37.0667C19.6663 37.0001 19.3997 36.8667 19.1997 36.8001C18.933 36.6667 18.6663 36.4667 18.3997 36.3334C17.9997 36.0001 17.5997 35.6001 17.2663 35.2001C17.1997 35.1334 17.133 35.0001 17.0663 34.9334C16.6663 34.2667 16.333 33.6001 16.133 32.8001V32.7334C16.0663 32.5334 16.0663 32.2667 15.9997 32.0667V31.3334V30.6667L14.6663 32.0001L13.333 30.6667V31.2667C13.333 31.3334 13.333 31.3334 13.333 31.4001C13.333 31.8001 13.3997 32.2001 13.3997 32.6001C13.4663 33.2001 13.5997 33.7334 13.7997 34.3334C13.7997 34.4001 13.7997 34.4667 13.8663 34.4667C13.9997 34.9334 14.1997 35.3334 14.4663 35.7334C14.5997 35.9334 14.733 36.1334 14.8663 36.3334C15.0663 36.6001 15.2663 36.8667 15.4663 37.0667C15.9997 37.7334 16.5997 38.2667 17.2663 38.6667C18.2663 39.3334 19.4663 39.7334 20.6663 39.8667C20.8663 39.8667 21.133 39.9334 21.333 39.9334C21.533 39.9334 21.7997 39.9334 21.9997 39.8667C23.1997 39.7334 24.3997 39.3334 25.3997 38.6667C26.0663 38.2001 26.6663 37.6667 27.1997 37.0667C27.3997 36.8001 27.5997 36.6001 27.7997 36.3334C27.933 36.1334 28.0663 35.9334 28.1997 35.7334C28.3997 35.3334 28.5997 34.8667 28.7997 34.4667C28.7997 34.4001 28.8663 34.3334 28.8663 34.3334C29.0663 33.8001 29.1997 33.2001 29.2663 32.6001C29.333 32.2001 29.333 31.8001 29.333 31.4001C29.333 31.3334 29.333 31.3334 29.333 31.2667V30.6667ZM17.333 38.0001L18.6663 36.6667L19.9997 38.0001L18.6663 39.3334L17.333 38.0001ZM25.333 38.0001L23.9997 39.3334L22.6663 38.0001L23.9997 36.6667L25.333 38.0001Z" fill="#F0263C"/>
<path d="M22.6667 28.0002V25.3335H21.3333H20V28.0002H22.6667Z" fill="#231D9A"/>
<path d="M22.6667 29.3335H20V32.0002H22.6667V29.3335Z" fill="#231D9A"/>
<path d="M18.6667 32.0002V29.3335H16V30.6668V31.2668V32.0002H16.0667H18.6667Z" fill="#231D9A"/>
<path d="M26.6667 29.3335H24V32.0002H26.6H26.6667V31.2668V30.6668V29.3335Z" fill="#231D9A"/>
<path d="M22.6667 33.3335H20V36.0002H22.6667V33.3335Z" fill="#231D9A"/>
<path d="M21.3326 22.6801L20.0127 24L21.3326 25.3199L22.6525 24L21.3326 22.6801Z" fill="#FFD400"/>
<path d="M15.9996 22.6801L14.6797 24L15.9996 25.3199L17.3195 24L15.9996 22.6801Z" fill="#FFD400"/>
<path d="M14.6656 29.3466L13.3457 30.6665L14.6656 31.9864L15.9855 30.6665L14.6656 29.3466Z" fill="#FFD400"/>
<path d="M18.6656 36.6801L17.3457 38L18.6656 39.3199L19.9855 38L18.6656 36.6801Z" fill="#FFD400"/>
<path d="M23.9996 36.6801L22.6797 38L23.9996 39.3199L25.3195 38L23.9996 36.6801Z" fill="#FFD400"/>
<path d="M27.9996 29.3468L26.6797 30.6667L27.9996 31.9867L29.3195 30.6667L27.9996 29.3468Z" fill="#FFD400"/>
<path d="M26.6656 22.6801L25.3457 24L26.6656 25.3199L27.9855 24L26.6656 22.6801Z" fill="#FFD400"/>
</g>
<defs>
<clipPath id="clip0_197_5936">
<rect width="64" height="64" fill="white"/>
</clipPath>
</defs>
</svg>
